<svg width="7" height="7" viewBox="0 0 7 7" fill="none" xmlns="http://www.w3.org/2000/svg">
<path d="M5.9954 5.85479C5.85475 5.99544 5.66398 6.07446 5.46507 6.07446C5.26616 6.07446 5.07539 5.99544 4.93474 5.85479L3.34375 4.2638L1.75276 5.85479C1.61211 5.99544 1.42134 6.07446 1.22243 6.07446C1.02352 6.07446 0.832752 5.99544 0.6921 5.85479C0.551447 5.71414 0.47243 5.52337 0.47243 5.32446C0.47243 5.12555 0.551447 4.93478 0.6921 4.79413L2.28309 3.20314L0.6921 1.61215C0.551447 1.4715 0.47243 1.28073 0.47243 1.08182C0.47243 0.882909 0.551447 0.692144 0.6921 0.551492C0.832752 0.410839 1.02352 0.331822 1.22243 0.331822C1.42134 0.331822 1.61211 0.410839 1.75276 0.551492L3.34375 2.14248L4.93474 0.551492C5.07539 0.410839 5.26616 0.331822 5.46507 0.331822C5.66398 0.331822 5.85475 0.410839 5.9954 0.551492C6.13605 0.692144 6.21507 0.882909 6.21507 1.08182C6.21507 1.28073 6.13605 1.4715 5.9954 1.61215L4.40441 3.20314L5.9954 4.79413C6.13605 4.93478 6.21507 5.12555 6.21507 5.32446C6.21507 5.52337 6.13605 5.71414 5.9954 5.85479Z" fill="white" fill-opacity="0.698"/>
</svg>
