<svg width="39" height="39" viewBox="0 0 39 39" fill="none" xmlns="http://www.w3.org/2000/svg">
<rect width="39" height="39" rx="2" fill="url(#paint0_linear_0_1167)"/>
<path d="M26.9183 15.5951C26.7412 14.7066 26.3 13.8937 25.6534 13.2646C25.0069 12.6355 24.1858 12.2201 23.2994 12.0738C22.6334 11.9667 21.9519 12.0164 21.3081 12.219C20.6643 12.4217 20.0757 12.7718 19.5883 13.2421C19.4296 13.391 19.2209 13.4737 19.0042 13.4737C18.7876 13.4737 18.5789 13.391 18.4202 13.2421C17.6109 12.4521 16.531 12.0073 15.405 12.0001C14.2791 11.9928 13.1937 12.4237 12.3744 13.2031C11.5551 13.9825 11.0651 15.0505 11.006 16.1852C10.947 17.3198 11.3236 18.4337 12.0574 19.2954L18.119 26.5842C18.2275 26.7144 18.3629 26.8191 18.5157 26.8909C18.6686 26.9628 18.8351 27 19.0037 27C19.1723 27 19.3389 26.9628 19.4917 26.8909C19.6446 26.8191 19.78 26.7144 19.8885 26.5842L25.95 19.2954C26.3787 18.7933 26.6886 18.1995 26.8563 17.5588C27.024 16.9181 27.0452 16.2474 26.9183 15.5972V15.5951Z" fill="white"/>
<defs>
<linearGradient id="paint0_linear_0_1167" x1="0" y1="0" x2="39" y2="39" gradientUnits="userSpaceOnUse">
<stop stop-color="#450AF5"/>
<stop offset="1" stop-color="#C4EFD9"/>
</linearGradient>
</defs>
</svg>
