<svg width="16" height="17" viewBox="0 0 16 17" fill="none" xmlns="http://www.w3.org/2000/svg">
<path d="M6.53 9.67313C6.67045 9.81375 6.74934 10.0044 6.74934 10.2031C6.74934 10.4019 6.67045 10.5925 6.53 10.7331L3.81 13.4531H4.828C5.02691 13.4531 5.21768 13.5321 5.35833 13.6728C5.49898 13.8134 5.578 14.0042 5.578 14.2031C5.578 14.402 5.49898 14.5928 5.35833 14.7335C5.21768 14.8741 5.02691 14.9531 4.828 14.9531H1.25V11.3741C1.25 11.1752 1.32902 10.9844 1.46967 10.8438C1.61032 10.7031 1.80109 10.6241 2 10.6241C2.19891 10.6241 2.38968 10.7031 2.53033 10.8438C2.67098 10.9844 2.75 11.1752 2.75 11.3741V12.3921L5.47 9.67212C5.61063 9.53167 5.80125 9.45278 6 9.45278C6.19875 9.45278 6.38937 9.53167 6.53 9.67212V9.67313ZM9.47 6.73313C9.32955 6.5925 9.25066 6.40188 9.25066 6.20312C9.25066 6.00437 9.32955 5.81375 9.47 5.67312L12.19 2.95312H11.172C11.0735 2.95312 10.976 2.93373 10.885 2.89603C10.794 2.85834 10.7113 2.8031 10.6417 2.73346C10.572 2.66381 10.5168 2.58113 10.4791 2.49014C10.4414 2.39914 10.422 2.30162 10.422 2.20312C10.422 2.10463 10.4414 2.00711 10.4791 1.91611C10.5168 1.82512 10.572 1.74244 10.6417 1.67279C10.7113 1.60315 10.794 1.54791 10.885 1.51022C10.976 1.47252 11.0735 1.45312 11.172 1.45313H14.75V5.03212C14.75 5.23104 14.671 5.4218 14.5303 5.56246C14.3897 5.70311 14.1989 5.78212 14 5.78212C13.8011 5.78212 13.6103 5.70311 13.4697 5.56246C13.329 5.4218 13.25 5.23104 13.25 5.03212V4.01312L10.53 6.73313C10.3894 6.87358 10.1988 6.95247 10 6.95247C9.80125 6.95247 9.61063 6.87358 9.47 6.73313Z" fill="white" fill-opacity="0.698"/>
</svg>
