<svg width="40" height="40" viewBox="0 0 40 40" fill="none" xmlns="http://www.w3.org/2000/svg">
<path d="M0.924316 19.6155C0.924316 30.2434 9.70386 39.0229 20.3317 39.0229C30.9596 39.0229 39.7391 30.2434 39.7391 19.6155C39.7391 8.98763 30.9596 0.323608 20.3317 0.323608C9.70386 0.323608 0.924316 8.98763 0.924316 19.6155ZM27.494 28.6261C22.9887 25.8536 17.2127 25.1605 10.5125 26.6622C8.89522 26.8933 8.66417 24.5829 10.0504 24.3518C17.4437 22.619 23.6818 23.4277 28.7647 26.5467C30.0354 27.3554 28.7647 29.3192 27.494 28.6261ZM29.4578 23.4277C24.2594 20.1931 16.2885 19.2689 10.1659 21.1173C8.20209 21.6949 7.50897 18.6913 9.3573 18.2293C16.404 16.1499 25.0681 17.1896 31.0751 20.8862C32.6924 21.9259 31.0751 24.4673 29.4578 23.4277ZM9.24178 15.2257C7.27793 15.9188 6.00721 12.5688 8.20209 11.7601C15.0178 9.68075 26.5698 10.0273 33.7321 14.3016C35.6959 15.3412 33.8476 18.5758 31.7682 17.4206C25.5301 13.724 15.1333 13.3774 9.24178 15.2257Z" fill="white"/>
</svg>
