<svg width="16" height="17" viewBox="0 0 16 17" fill="none" xmlns="http://www.w3.org/2000/svg">
<path d="M1 3.70312V12.7031H15V3.70312H1ZM1 2.70312H15C15.2652 2.70313 15.5196 2.80848 15.7071 2.99602C15.8946 3.18355 16 3.43791 16 3.70312V13.7031C16 13.9683 15.8946 14.2227 15.7071 14.4102C15.5196 14.5978 15.2652 14.7031 15 14.7031H1C0.734784 14.7031 0.48043 14.5978 0.292893 14.4102C0.105357 14.2227 0 13.9683 0 13.7031V3.70312C0 3.43791 0.105357 3.18355 0.292893 2.99602C0.48043 2.80848 0.734784 2.70313 1 2.70312Z" fill="white" fill-opacity="0.698"/>
<path fill-rule="evenodd" clip-rule="evenodd" d="M10 8.70312H14V11.7031H10V8.70312Z" fill="white" fill-opacity="0.698"/>
</svg>
