<svg width="56" height="56" viewBox="0 0 56 56" fill="none" xmlns="http://www.w3.org/2000/svg">
<rect width="56" height="56" rx="28" fill="#1ED760"/>
<g clip-path="url(#clip0_0_1811)">
<path d="M22.225 18.207L37.9633 27.293C38.0874 27.3647 38.1903 27.4678 38.2619 27.5919C38.3335 27.716 38.3712 27.8567 38.3712 28C38.3712 28.1433 38.3335 28.284 38.2619 28.4081C38.1903 28.5322 38.0874 28.6353 37.9633 28.707L22.225 37.793C22.1009 37.8647 21.9601 37.9024 21.8167 37.9024C21.6734 37.9024 21.5326 37.8647 21.4084 37.7931C21.2843 37.7214 21.1812 37.6184 21.1095 37.4943C21.0378 37.3701 21 37.2293 21 37.086V18.914C21 18.7707 21.0378 18.6299 21.1095 18.5058C21.1812 18.3816 21.2843 18.2786 21.4084 18.2069C21.5326 18.1353 21.6734 18.0976 21.8167 18.0976C21.9601 18.0976 22.1009 18.1353 22.225 18.207Z" fill="black"/>
</g>
<defs>
<clipPath id="clip0_0_1811">
<rect width="28" height="28" fill="white" transform="translate(14 14)"/>
</clipPath>
</defs>
</svg>
